The.Watch.2012.DVDRip 480p


Plot: Four everyday suburban guys come together as an excuse to escape their 

humdrum lives one night a week. But when they accidentally discover that their 

town has become overrun with aliens posing as ordinary suburbanites, they have no 

choice but to save their neighborhood ΓÇô and the world ΓÇô from total extermination.

 
http://www.imdb.com/title/tt1298649/

Genre: Comedy | Sci-Fi

IMDb Rating: 5.8/10 from 10,102 users

Director: Akiva Schaffer

Cast: Ben Stiller, Vince Vaughn and Jonah Hill

Screen
 
http://bayimg.com/mAFiAaAeG

Video
ID                             : 1
Format                         : AVC
Format/Info                    : Advanced Video Codec
Format profile                 : High@L3.0
Format settings, CABAC         : Yes
Format settings, ReFrames      : 2 frames
Codec ID                       : avc1
Codec ID/Info                  : Advanced Video Coding
Duration                       : 1h 42mn
Bit rate                       : 326 Kbps
Width                          : 720 pixels
Height                         : 304 pixels
Display aspect ratio           : 2.35:1
Frame rate mode                : Constant
Frame rate                     : 25.000 fps
Color space                    : YUV
Chroma subsampling             : 4:2:0
Bit depth                      : 8 bits
Scan type                      : Progressive
Bits/(Pixel*Frame)             : 0.060
Stream size                    : 238 MiB (76%)
Writing library                : x264 core 85 Ubuntu_2:0.85.1448+git1a6d32-4
Encoding settings              : cabac=1 / ref=2 / deblock=1:0:0 / analyse=0x3:0x113 / me=hex / subme=6 / psy=1 / psy_rd=1.00:0.00 / mixed_ref=0 / me_range=16 / chroma_me=1 / trellis=0 / 8x8dct=1 / cqm=0 / deadzone=21,11 / fast_pskip=1 / chroma_qp_offset=-2 / threads=24 / sliced_threads=0 / nr=0 / decimate=1 / mbaff=0 / constrained_intra=0 / bframes=3 / b_pyramid=0 / b_adapt=1 / b_bias=0 / direct=3 / wpredb=1 / wpredp=2 / keyint=60 / keyint_min=25 / scenecut=40 / intra_refresh=0 / rc_lookahead=40 / rc=crf / mbtree=1 / crf=24.0 / qcomp=0.60 / qpmin=10 / qpmax=51 / qpstep=4 / ip_ratio=1.41 / aq=1:1.00

Audio
ID                             : 2
Format                         : AAC
Format/Info                    : Advanced Audio Codec
Format profile                 : LC
Codec ID                       : 40
Duration                       : 1h 42mn
Bit rate mode                  : Variable
Bit rate                       : 96.0 Kbps
Channel(s)                     : 2 channels
Channel positions              : Front: L R
Sampling rate                  : 48.0 KHz
Compression mode               : Lossy
Delay relative to video        : -1ms
Stream size                    : 70.0 MiB (22%)

